<?xml version="1.0" encoding="utf-8"?>
<!-- Generator: Adobe Illustrator 24.3.0, SVG Export Plug-In . SVG Version: 6.00 Build 0)  -->
<svg version="1.1" id="Layer_1" xmlns="http://www.w3.org/2000/svg" xmlns:xlink="http://www.w3.org/1999/xlink" x="0px" y="0px"
	 viewBox="0 0 566.9 129.1" style="enable-background:new 0 0 566.9 129.1;" xml:space="preserve">
<style type="text/css">
	.st0{fill:#FFFFFF;}
	.st1{fill:#C9954A;}
</style>
<g>
	<g>
		<path class="st0" d="M161.2,64.4c1-0.1,1.8-0.2,2.4-0.4c0.6-0.2,1.2-0.6,1.7-1.1c0.5-0.6,0.9-1.3,1.1-2.1c0.2-0.9,0.3-2.2,0.3-4
			V37.4c0-1.9-0.1-3.3-0.4-4.2c-0.2-0.9-0.7-1.6-1.4-2.2c-0.9-0.7-2.1-1.1-3.8-1.2v-0.6h14.4c3.2,0,5.2,0,6.1,0.1
			c3.7,0.3,6.8,1.3,9.4,3.2c2.5,1.7,4.4,4,5.7,6.8c1.4,2.8,2,5.9,2,9.2c0,2.4-0.4,4.7-1.2,6.8c-0.8,2.1-1.9,3.9-3.2,5.3
			c-1.9,2-4.4,3.3-7.3,3.8c-2.2,0.4-4.4,0.6-6.6,0.6h-19.4V64.4z M172.5,30v26.1c0,1.7,0.1,3,0.3,3.9c0.2,0.9,0.6,1.7,1.1,2.3
			c1.1,1.4,2.9,2,5.5,2c2.2,0,4-0.4,5.5-1.1c1.5-0.7,2.9-1.9,4.1-3.5c1.2-1.5,2.1-3.3,2.7-5.3c0.6-2,0.9-4.1,0.9-6.3
			c0-2.5-0.4-4.8-1.1-7.1c-0.8-2.2-1.8-4.2-3.2-5.9c-1.9-2.3-4.3-3.9-7-4.6c-1.5-0.4-3.3-0.6-5.6-0.6H172.5z"/>
		<path class="st0" d="M209.7,46.4c0.6-1.1,1.3-1.9,2.1-2.5c1.5-1,3.1-1.5,5-1.5c1.1,0,2,0.3,2.6,0.8c0.5,0.5,0.8,1,0.8,1.7
			c0,0.5-0.2,0.9-0.5,1.2c-0.3,0.3-0.7,0.5-1.2,0.5c-0.6,0-1.1-0.2-1.5-0.7l-0.8-0.9c-0.6-0.7-1.4-1-2.3-1c-1.2,0-2.1,0.8-2.8,2.3
			c-0.7,1.5-1,3.7-1,6.4v4.9l0,2c0,1.2,0.1,2.1,0.2,2.6c0.1,0.6,0.4,1,0.8,1.4c0.5,0.5,1.4,0.8,2.7,1.1V65h-11.6v-0.6
			c1.1-0.1,1.8-0.3,2.3-0.6c0.5-0.3,0.8-0.7,1.1-1.3c0.2-0.4,0.3-1,0.4-1.8c0.1-0.8,0.1-2,0.1-3.5v-6.5c0-1.8,0-3.1-0.1-3.8
			c-0.1-0.7-0.3-1.3-0.6-1.8c-0.3-0.5-0.7-0.8-1.1-1.1c-0.4-0.2-1-0.4-1.8-0.4v-0.6l6.8-0.9C209.5,43.9,209.7,45.2,209.7,46.4z"/>
		<path class="st0" d="M226.7,59.1c0.9,0,1.6,0.3,2.2,0.9c0.6,0.6,0.9,1.4,0.9,2.3c0,0.9-0.3,1.6-0.9,2.2c-0.6,0.6-1.4,0.9-2.2,0.9
			c-0.9,0-1.6-0.3-2.2-0.9c-0.6-0.6-0.9-1.4-0.9-2.2c0-0.9,0.3-1.6,0.9-2.3C225.1,59.4,225.8,59.1,226.7,59.1z"/>
		<path class="st0" d="M248,65v-0.6c1-0.1,1.8-0.2,2.5-0.4s1.2-0.6,1.6-1.1c0.6-0.6,0.9-1.3,1.1-2.1c0.2-0.9,0.3-2.2,0.3-4V37.4
			c0-1.8-0.1-3.1-0.3-4c-0.2-0.9-0.6-1.6-1.1-2.1c-0.5-0.5-1-0.9-1.7-1.1c-0.6-0.2-1.4-0.4-2.4-0.4v-0.6h17.3c1.8,0,2.9,0,3.4,0.1
			c2,0.2,3.6,0.6,5,1.4c1.1,0.7,2,1.6,2.6,2.8c0.6,1.1,0.9,2.4,0.9,3.8c0,2.3-0.7,4.2-2.1,5.6c-0.5,0.5-1.1,1-1.7,1.4
			c-0.6,0.4-1.6,0.8-2.8,1.2c1.7,0.3,3,0.6,3.9,0.9s1.8,0.8,2.5,1.4c1.1,0.9,2,2,2.6,3.4s0.9,2.8,0.9,4.4c0,1.6-0.3,3.1-1,4.4
			c-0.6,1.3-1.5,2.4-2.7,3.2c-1,0.7-2.3,1.2-3.7,1.5c-1.4,0.3-3.4,0.4-6,0.4H248z M259.3,30v15.6h2.1c1,0,2-0.1,3.1-0.2
			c0.9-0.1,1.7-0.3,2.2-0.5c0.6-0.2,1.1-0.5,1.6-0.8c0.9-0.7,1.6-1.5,2.1-2.6c0.5-1,0.7-2.2,0.7-3.5c0-1.3-0.2-2.6-0.7-3.8
			c-0.5-1.2-1.2-2.1-2-2.8c-0.7-0.6-1.5-1-2.5-1.2c-0.9-0.2-2.3-0.3-4.2-0.3H259.3z M259.3,46.4v10.8c0,1.3,0.1,2.4,0.3,3.2
			c0.2,0.8,0.5,1.5,0.9,2c0.9,1.2,2.4,1.8,4.6,1.8c2.8,0,5-0.8,6.7-2.3c1.6-1.5,2.5-3.6,2.5-6.3c0-1.5-0.3-2.9-0.8-4.2
			c-0.5-1.3-1.2-2.3-2-3c-1.6-1.3-4-1.9-7.4-1.9H259.3z"/>
		<path class="st0" d="M291.1,46.4c0.6-1.1,1.3-1.9,2.1-2.5c1.5-1,3.1-1.5,5-1.5c1.1,0,2,0.3,2.6,0.8c0.5,0.5,0.8,1,0.8,1.7
			c0,0.5-0.2,0.9-0.5,1.2c-0.3,0.3-0.7,0.5-1.2,0.5c-0.6,0-1.1-0.2-1.5-0.7l-0.8-0.9c-0.6-0.7-1.4-1-2.3-1c-1.2,0-2.1,0.8-2.8,2.3
			c-0.7,1.5-1,3.7-1,6.4v4.9l0,2c0,1.2,0.1,2.1,0.2,2.6c0.1,0.6,0.4,1,0.8,1.4c0.5,0.5,1.4,0.8,2.7,1.1V65h-11.6v-0.6
			c1.1-0.1,1.8-0.3,2.3-0.6c0.5-0.3,0.8-0.7,1.1-1.3c0.2-0.4,0.3-1,0.4-1.8c0.1-0.8,0.1-2,0.1-3.5v-6.5c0-1.8,0-3.1-0.1-3.8
			c-0.1-0.7-0.3-1.3-0.6-1.8c-0.3-0.5-0.7-0.8-1.1-1.1c-0.4-0.2-1-0.4-1.8-0.4v-0.6l6.8-0.9C291,43.9,291.1,45.2,291.1,46.4z"/>
		<path class="st0" d="M321.2,65.5c-0.2-1.1-0.3-2.2-0.3-3.3c-2.2,2.2-4.8,3.3-7.8,3.3c-2.2,0-3.9-0.5-5.3-1.6
			c-1.3-1-1.9-2.5-1.9-4.5v-9.1l0-2c0-1.2-0.1-2.1-0.2-2.6c-0.1-0.5-0.4-1-0.8-1.4c-0.5-0.5-1.4-0.8-2.7-1v-0.6h7.7V56
			c0,1.9,0.1,3.3,0.2,4.2c0.1,0.9,0.4,1.6,0.7,2.2c0.4,0.6,0.9,1.1,1.7,1.4c0.7,0.3,1.5,0.5,2.4,0.5c1,0,1.9-0.2,2.8-0.6
			c0.9-0.4,1.5-0.9,2-1.6c0.5-0.7,0.8-1.5,1-2.4c0.2-0.9,0.2-2.4,0.2-4.4v-5.1l0-1.9c0-1.2-0.1-2.1-0.2-2.6c-0.1-0.5-0.4-1-0.8-1.4
			c-0.5-0.5-1.4-0.8-2.7-1v-0.6h7.7V57c0,1.8,0,3.1,0.1,3.8c0.1,0.7,0.3,1.3,0.6,1.8c0.3,0.5,0.7,0.8,1.1,1.1c0.4,0.2,1,0.4,1.8,0.4
			v0.6L321.2,65.5z"/>
		<path class="st0" d="M337.3,42.3c0.2,1,0.4,2,0.4,2.9v0.4c2.2-2.2,4.8-3.3,7.7-3.3c2.2,0,4,0.5,5.4,1.6c1.3,1,2,2.5,2,4.4v11.1
			c0,1.2,0.1,2.1,0.2,2.6c0.1,0.6,0.4,1,0.8,1.4c0.5,0.5,1.4,0.8,2.7,1.1V65H345v-0.6c1-0.1,1.8-0.3,2.3-0.6
			c0.5-0.3,0.8-0.7,1.1-1.3c0.2-0.4,0.3-1,0.4-1.8c0.1-0.8,0.1-2,0.1-3.5v-5.6c0-1.9-0.1-3.3-0.2-4.2c-0.1-0.9-0.4-1.6-0.7-2.2
			c-0.4-0.6-1-1.1-1.7-1.4c-0.8-0.3-1.6-0.5-2.5-0.5c-1,0-1.9,0.2-2.7,0.6c-0.8,0.4-1.5,0.9-2,1.6c-0.5,0.7-0.9,1.5-1,2.4
			s-0.2,2.3-0.2,4.4v5.1l0,1.9c0,1.2,0.1,2.1,0.2,2.6c0.1,0.6,0.4,1,0.8,1.4c0.5,0.5,1.4,0.8,2.7,1.1V65h-11.6v-0.6
			c1.1-0.1,1.8-0.3,2.3-0.6c0.5-0.3,0.8-0.7,1.1-1.3c0.2-0.4,0.3-1,0.4-1.8c0.1-0.8,0.1-2,0.1-3.5v-6.5c0-1.8,0-3.1-0.1-3.8
			c-0.1-0.7-0.3-1.3-0.6-1.8c-0.3-0.5-0.7-0.8-1.1-1.1c-0.4-0.2-1-0.4-1.8-0.4v-0.6L337.3,42.3z"/>
		<path class="st0" d="M358.7,54c0-2.8,1.1-5.4,3.2-7.6c2.6-2.7,5.6-4,9.2-4c3.6,0,6.6,1.3,9.1,4c2.1,2.2,3.2,4.8,3.2,7.6
			c0,2.8-1,5.3-3,7.5c-2.5,2.7-5.5,4-9.3,4c-3.7,0-6.9-1.3-9.3-4c-1-1.1-1.7-2.2-2.2-3.5C359,56.7,358.7,55.3,358.7,54z M363.5,53.7
			c0,3,0.7,5.6,2,7.7c1.5,2.4,3.4,3.5,5.6,3.5c0.9,0,1.9-0.3,2.8-0.8c0.9-0.5,1.7-1.3,2.3-2.2c0.7-1,1.2-2.2,1.7-3.7
			c0.4-1.5,0.6-2.9,0.6-4.3c0-1.4-0.2-2.9-0.7-4.3c-0.4-1.5-1-2.7-1.8-3.8c-1.4-2-3.2-3-5.3-3c-2,0-3.7,1-5.1,3.1
			C364.2,48.1,363.5,50.6,363.5,53.7z"/>
		<path class="st0" d="M410.9,47.5v9.3c0,1.8,0.1,3.1,0.3,4c0.2,0.9,0.6,1.6,1.1,2.1c0.5,0.5,1,0.9,1.6,1.1c0.6,0.2,1.4,0.4,2.5,0.4
			V65h-16.8v-0.6c1-0.1,1.8-0.2,2.5-0.4c0.6-0.2,1.2-0.6,1.6-1.1c0.6-0.6,0.9-1.3,1.1-2.1c0.2-0.9,0.3-2.2,0.3-4V37.4
			c0-1.8-0.1-3.1-0.3-4c-0.2-0.9-0.6-1.6-1.1-2.1c-0.5-0.5-1-0.9-1.7-1.1c-0.6-0.2-1.4-0.4-2.4-0.4v-0.6h12.7c2.1,0,3.5,0,4.2,0
			c2.7,0.1,4.8,0.5,6.4,1.1c1.7,0.7,3.1,1.7,4,3.1c1,1.4,1.4,3,1.4,4.8c0,2.7-1,4.9-3.1,6.6c-0.6,0.5-1.3,0.9-2.1,1.2
			c-0.8,0.3-1.8,0.6-3.1,0.9c1.1,0.4,1.8,0.9,2.3,1.4c0.4,0.4,0.8,0.8,1.1,1.4c0.3,0.6,0.8,1.5,1.5,2.9c1.6,3.2,2.7,5.5,3.5,7
			c0.8,1.5,1.5,2.6,2,3.2c0.4,0.5,0.9,0.9,1.3,1.1c0.4,0.2,1,0.4,1.7,0.4V65h-8.7c-0.4-1-0.7-1.6-0.8-1.8l-1.8-4.2
			c-1.1-2.5-2.2-4.7-3.3-6.6c-1.1-1.9-2.1-3.2-3.1-3.9c-0.5-0.4-1-0.6-1.5-0.7c-0.5-0.1-1.2-0.2-2-0.2H410.9z M410.9,46.9h1
			c2.2,0,3.7-0.1,4.7-0.4c0.9-0.2,1.8-0.8,2.6-1.5c1.8-1.8,2.8-3.9,2.8-6.5c0-1.4-0.3-2.7-0.8-3.9c-0.5-1.2-1.3-2.2-2.2-3
			c-0.7-0.6-1.6-1-2.6-1.2c-1-0.2-2.5-0.4-4.3-0.4h-1.1V46.9z"/>
		<path class="st0" d="M434.2,43.3l7.6-0.9v15.1l0,2c0,1.2,0.1,2.1,0.2,2.6c0.1,0.5,0.4,1,0.8,1.4c0.5,0.5,1.4,0.8,2.7,1.1V65h-11.6
			v-0.6c1.1-0.1,1.8-0.3,2.3-0.6c0.5-0.3,0.8-0.7,1.1-1.3c0.2-0.4,0.3-1,0.4-1.8c0.1-0.8,0.1-2,0.1-3.5v-6.5c0-1.8,0-3.1-0.1-3.8
			c-0.1-0.7-0.3-1.3-0.6-1.8c-0.3-0.5-0.7-0.8-1.1-1.1c-0.4-0.2-1-0.4-1.8-0.4V43.3z M439.7,32.9c-0.7,0-1.3-0.2-1.7-0.7
			c-0.4-0.4-0.7-1-0.7-1.7c0-0.6,0.2-1.2,0.7-1.6c0.5-0.4,1-0.7,1.7-0.7c0.7,0,1.2,0.2,1.7,0.7c0.5,0.4,0.7,1,0.7,1.6
			c0,0.7-0.2,1.2-0.7,1.7C440.9,32.7,440.4,32.9,439.7,32.9z"/>
		<path class="st0" d="M454.6,45.6c0.7-0.9,1.4-1.6,2.1-2c1.3-0.9,3-1.3,4.8-1.3c2.7,0,5,0.8,6.9,2.5c2.4,2.1,3.7,5,3.7,8.8
			c0,3.8-1.2,6.8-3.5,9c-2,1.9-4.6,2.9-7.8,2.9c-1.7,0-3.1-0.2-4.2-0.7l-1.5-0.6c-0.4-0.2-0.8-0.2-1.1-0.2c-0.9,0-1.7,0.7-2.4,2.2
			h-1.1V35.4c0-2-0.3-3.4-0.9-4.2c-0.6-0.8-1.7-1.3-3.1-1.3v-0.6l8-1.1V45.6z M454.6,53.6c0,1.9,0.1,3.6,0.3,5.2
			c0.2,1.6,0.5,2.7,0.8,3.4c0.4,0.9,1,1.5,1.8,2c0.8,0.5,1.7,0.7,2.7,0.7c2.1,0,3.9-1,5.3-3c1.4-2,2.1-4.6,2.1-7.7
			c0-1.6-0.2-3.2-0.7-4.7c-0.5-1.5-1.1-2.7-1.9-3.8c-0.7-0.9-1.4-1.5-2.2-2c-0.8-0.4-1.6-0.7-2.5-0.7c-1,0-2,0.3-2.8,0.9
			c-0.9,0.6-1.5,1.4-1.9,2.4C454.9,47.9,454.6,50.3,454.6,53.6z"/>
		<path class="st0" d="M480,50.8c-0.1,0.9-0.1,1.5-0.1,1.9c0,1.5,0.2,3,0.7,4.5c0.4,1.5,1.1,2.7,1.8,3.6c0.8,1,1.8,1.8,2.9,2.3
			c1.2,0.6,2.4,0.8,3.7,0.8c0.9,0,1.8-0.2,2.7-0.5c0.8-0.3,1.5-0.8,2.1-1.3c0.6-0.6,1.2-1.6,1.6-2.9l0.6,0.2c-0.5,2-1.4,3.6-2.9,4.6
			c-1.5,1-3.5,1.6-6,1.6c-2.2,0-4-0.3-5.5-1c-1.5-0.7-2.8-1.7-3.9-3.2c-1.5-2-2.2-4.4-2.2-7.3c0-3.9,1.4-7,4.2-9.3
			c2-1.6,4.4-2.4,7-2.4c1.4,0,2.7,0.2,3.9,0.7c1.2,0.5,2.2,1.2,3,2.2c1.3,1.5,1.9,3.3,1.9,5.5H480z M491.5,49.7
			c-0.1-1.8-0.4-3.1-1-4c-0.5-0.9-1.1-1.5-1.9-2c-0.8-0.5-1.6-0.7-2.5-0.7c-1.5,0-2.8,0.6-3.9,1.9c-1.1,1.3-1.8,2.9-2,4.9H491.5z"/>
		<path class="st0" d="M499,43.3l7.6-0.9v15.1l0,2c0,1.2,0.1,2.1,0.2,2.6c0.1,0.5,0.4,1,0.8,1.4c0.5,0.5,1.4,0.8,2.7,1.1V65h-11.6
			v-0.6c1.1-0.1,1.8-0.3,2.3-0.6c0.5-0.3,0.8-0.7,1.1-1.3c0.2-0.4,0.3-1,0.4-1.8c0.1-0.8,0.1-2,0.1-3.5v-6.5c0-1.8,0-3.1-0.1-3.8
			c-0.1-0.7-0.3-1.3-0.6-1.8c-0.3-0.5-0.7-0.8-1.1-1.1c-0.4-0.2-1-0.4-1.8-0.4V43.3z M504.5,32.9c-0.7,0-1.3-0.2-1.7-0.7
			c-0.4-0.4-0.7-1-0.7-1.7c0-0.6,0.2-1.2,0.7-1.6c0.5-0.4,1-0.7,1.7-0.7c0.7,0,1.2,0.2,1.7,0.7c0.5,0.4,0.7,1,0.7,1.6
			c0,0.7-0.2,1.2-0.7,1.7C505.7,32.7,505.2,32.9,504.5,32.9z"/>
		<path class="st0" d="M519.2,46.4c0.6-1.1,1.3-1.9,2.1-2.5c1.5-1,3.1-1.5,5-1.5c1.1,0,2,0.3,2.6,0.8c0.5,0.5,0.8,1,0.8,1.7
			c0,0.5-0.2,0.9-0.5,1.2c-0.3,0.3-0.7,0.5-1.2,0.5c-0.6,0-1.1-0.2-1.5-0.7l-0.8-0.9c-0.6-0.7-1.4-1-2.3-1c-1.2,0-2.1,0.8-2.8,2.3
			c-0.7,1.5-1,3.7-1,6.4v4.9l0,2c0,1.2,0.1,2.1,0.2,2.6c0.1,0.6,0.4,1,0.8,1.4c0.5,0.5,1.4,0.8,2.7,1.1V65h-11.6v-0.6
			c1.1-0.1,1.8-0.3,2.3-0.6c0.5-0.3,0.8-0.7,1.1-1.3c0.2-0.4,0.3-1,0.4-1.8c0.1-0.8,0.1-2,0.1-3.5v-6.5c0-1.8,0-3.1-0.1-3.8
			c-0.1-0.7-0.3-1.3-0.6-1.8c-0.3-0.5-0.7-0.8-1.1-1.1c-0.4-0.2-1-0.4-1.8-0.4v-0.6l6.8-0.9C519.1,43.9,519.2,45.2,519.2,46.4z"/>
		<path class="st0" d="M531.3,54c0-2.8,1.1-5.4,3.2-7.6c2.6-2.7,5.6-4,9.2-4c3.6,0,6.6,1.3,9.1,4c2.1,2.2,3.2,4.8,3.2,7.6
			c0,2.8-1,5.3-3,7.5c-2.5,2.7-5.5,4-9.3,4c-3.7,0-6.9-1.3-9.3-4c-1-1.1-1.7-2.2-2.2-3.5C531.6,56.7,531.3,55.3,531.3,54z
			 M536.1,53.7c0,3,0.7,5.6,2,7.7c1.5,2.4,3.4,3.5,5.6,3.5c0.9,0,1.9-0.3,2.8-0.8c0.9-0.5,1.7-1.3,2.3-2.2c0.7-1,1.2-2.2,1.7-3.7
			c0.4-1.5,0.6-2.9,0.6-4.3c0-1.4-0.2-2.9-0.7-4.3c-0.4-1.5-1-2.7-1.8-3.8c-1.4-2-3.2-3-5.3-3c-2,0-3.7,1-5.1,3.1
			C536.8,48.1,536.1,50.6,536.1,53.7z"/>
	</g>
</g>
<path class="st1" d="M71.4,7C37.7,7.5,10.6,34.9,10.6,68.6c0,21.9,11.4,41.1,28.6,52.1c-14-10.7-23.1-28.1-23.1-47.7
	c0-32.4,24.7-58.7,55.2-58.7c0,0,0,0,0.1,0c0,0,0,0,0.1,0c30.5,0,55.2,26.3,55.2,58.7c0,19.7-9.1,37.1-23.1,47.7
	c17.2-11,28.6-30.2,28.6-52.1C132.2,34.9,105,7.5,71.4,7z"/>
<g>
	<path class="st0" d="M113.9,81.7c-1.2-0.2-2.4-0.4-3.6-0.5c-0.5,0-0.7-0.2-0.8-0.7c-2.4-10.4-4.8-20.8-7.2-31.2
		c-0.1-0.4-0.1-0.6,0.3-0.9c0.9-0.6,1.3-1.5,1.1-2.6c-0.1-1-0.7-1.7-1.7-2c-0.6-0.2-1.3-0.4-2-0.6c-2.9-0.7-5.9-0.3-8.8,0.3
		c-2.9,0.6-5.8,1.3-8.7,1.8c-3.4,0.6-6.3-0.5-8.4-3.4c-0.8-1.1-1.7-2.2-2.6-3.3c-0.1-0.1-0.2-0.2-0.4-0.4c-1.2,1.5-2.4,3-3.5,4.4
		c-0.9,1.2-2.2,2-3.6,2.4c-1.7,0.5-3.4,0.4-5,0.1c-3-0.6-6-1.3-9-2c-3.1-0.6-6.2-0.7-9.2,0.4c-1,0.4-1.6,1-1.8,2.1
		c-0.2,1.1,0.2,2,1.1,2.6c0.4,0.3,0.4,0.5,0.3,0.9c-2.4,10.3-4.8,20.6-7.1,31c-0.2,0.7-0.4,0.9-1.1,1c-1.2,0.1-2.4,0.3-3.5,0.5
		c-0.4,0.1-0.9,0.2-0.9,0.9c0.1,1.3,0.6,2.2,1.8,2.8c1,0.4,1.9,0.9,2.9,1.2c5.5,1.7,11,1.8,16.5,0.4c1.5-0.4,3-1,4.5-1.6
		c1-0.4,1.6-1.3,1.8-2.4c0.1-0.8,0-1.2-0.9-1.3c-1.2-0.2-2.5-0.4-3.7-0.5c-0.5-0.1-0.7-0.2-0.8-0.7c-2.4-10.4-4.8-20.8-7.2-31.2
		c-0.1-0.4-0.1-0.6,0.3-0.9c1.2-0.8,1.5-2.4,0.7-3.6c-0.1-0.2-0.2-0.3-0.3-0.5c0-0.1,0.1-0.1,0.1-0.2c1.2,0.1,2.5,0.1,3.6,0.5
		c2.7,0.8,5.4,1.7,8.1,2.6c1.8,0.6,3.7,1.2,5.5,1.5c2.6,0.5,5.2,0.2,7.6-1.1c0.1,0.6,0.2,1.1,0.3,1.6c-0.2,0-0.3,0-0.5,0.1
		c-1.1,0-1.3,0.2-1.5,1.3c0,0.1-0.2,0.3-0.3,0.4c-0.6,0.4-0.8,0.9-0.6,1.6c0.2,0.6,0.7,1,1.4,1c0.7,0,1.3,0,2,0c0,0.3,0,0.6,0,0.8
		c-0.1,7,0,14-0.2,21c-0.1,4.5-0.5,9-0.9,13.4c-0.1,1.5-0.3,3.1-1.6,4.3c-0.2,0.2-0.2,0.4-0.4,0.6c-0.1,0.2-0.4,0.4-0.6,0.4
		c-0.8,0-1.6,0-2.4,0c-1.2,0-2,0.5-2.6,1.5c-0.1,0.2-0.4,0.4-0.6,0.5c-1.1,0.3-1.9,0.9-2.2,2c-0.2,0.5-0.4,0.7-0.9,0.9
		c-1.5,0.6-2.5,2.4-2.1,3.7c11,0,22.1,0,33.1,0c0.1-1.8-0.8-3.2-2.4-3.8c-0.4-0.1-0.5-0.3-0.6-0.7c-0.4-1.1-1.1-1.8-2.3-2.2
		c-0.2-0.1-0.5-0.3-0.6-0.5c-0.6-1-1.4-1.5-2.5-1.5c-0.6,0-1.2,0-1.8,0c-0.7,0-1.3,0-1.5-0.8c0-0.2-0.2-0.4-0.3-0.5
		c-0.7-0.5-0.9-1.3-1-2.1c-0.4-3.3-0.9-6.6-1-9.9c-0.3-8-0.3-16-0.5-24c0-1.1,0-2.1,0-3.3c0.8,0,1.5,0,2.1,0c0.7,0,1.2-0.4,1.4-1
		c0.2-0.7-0.1-1.2-0.6-1.5c-0.1-0.1-0.3-0.2-0.4-0.4c-0.2-1.1-0.4-1.3-1.5-1.3c-0.1,0-0.3,0-0.5-0.1c0.1-0.6,0.2-1.1,0.3-1.6
		c0.1,0,0.2,0.1,0.3,0.1c2.2,1.2,4.5,1.4,7,1.1c2.6-0.3,5.1-1.3,7.6-2.2c2.4-0.8,4.8-1.5,7.3-2.1c0.9-0.2,1.9-0.2,3-0.3
		c-1.1,1.8-1,3.3,0.3,4.2c0.4,0.3,0.5,0.5,0.4,1c-2.4,10.4-4.8,20.8-7.2,31.2c-0.1,0.5-0.3,0.7-0.9,0.7c-1.2,0.1-2.5,0.3-3.7,0.5
		c-0.8,0.2-1,0.5-0.8,1.3c0.2,1.1,0.8,1.9,1.8,2.4c1,0.4,1.9,0.8,2.9,1.2c2.4,0.8,4.9,1.2,7.4,1.3c4.6,0.2,9.2-0.4,13.4-2.4
		c1-0.5,1.7-1.2,1.9-2.3C115,82.2,114.9,81.9,113.9,81.7z M41,50.9c0,0,0.1,0,0.1,0c0,10,0,19.9,0,30.1c-2.3,0-4.7,0-7,0
		C36.4,71,38.7,60.9,41,50.9z M54.3,83.5c-0.2,0.7-0.6,1-1.1,1.2c-0.6,0.3-1.2,0.5-1.8,0.7c-2.4,1-5,1.4-7.6,1.6
		c-3.7,0.3-7.3-0.1-10.9-1.2c-1-0.3-1.9-0.7-2.8-1.1c-0.4-0.2-0.7-0.6-1.1-0.9c0-0.1,0.1-0.1,0.1-0.2c4.2,0.7,8.4,0.7,12.6,0.7
		C45.8,84.2,50,84.1,54.3,83.5z M50.7,82.9c-6,0.5-12,0.5-18.1,0C35.7,82.4,48.1,82.4,50.7,82.9z M49.2,81c-2.4,0-4.7,0-7,0
		c0-10.1,0-20.1,0-30.2c0,0,0.1,0,0.1,0C44.6,60.9,46.9,70.9,49.2,81z M42.4,47.6c0.1-0.1,0.2-0.3,0.3-0.4c0.5-0.6,0.4-1.4-0.1-1.9
		c-0.5-0.5-1.3-0.5-1.9,0c-0.6,0.5-0.7,1.3-0.2,2c0.1,0.1,0.2,0.3,0.3,0.4c-0.7-0.2-1-0.9-0.9-1.6c0.1-0.7,0.8-1.3,1.6-1.4
		c0.8,0,1.5,0.5,1.7,1.3C43.5,46.6,43.2,47.2,42.4,47.6z M67.7,46.3c-2.2,1.1-4.5,1.3-6.8,0.8c-1.8-0.4-3.5-1-5.3-1.4
		c-0.1,0-0.2-0.1-0.3-0.2c1,0.2,1.9,0.4,2.9,0.6c2,0.4,4,0.6,6.1,0.1c1.3-0.3,2.4-1,3.5-1.9c0.1,0.6,0.3,1.2,0.3,1.7
		C68.1,46,67.9,46.3,67.7,46.3z M86.9,101.5c0,0.1,0,0.1,0,0.3c-10.4,0-20.7,0-31.1,0c0.1-1.1,1.1-2,2.3-2.2c0.2,0,0.4,0,0.6,0
		c8.4,0,16.8,0,25.3,0C85.4,99.5,86.4,100.2,86.9,101.5z M81.6,96.9c1.3,0,2.1,0.5,2.4,1.6c-8.4,0-16.8,0-25.2,0
		c0.2-0.9,0.9-1.5,1.7-1.6c0.2,0,0.5,0,0.7,0C68,96.9,74.8,96.9,81.6,96.9z M79.4,94.9c0.7,0,1.2,0.2,1.7,0.9c-6.6,0-13,0-19.5,0
		c0.5-0.7,1-1,1.7-1c3.5,0,7,0,10.5,0C75.7,94.8,77.5,94.9,79.4,94.9z M73.6,89.5c0.1,1.5,0.4,2.9,1.6,4c0.1,0.1,0.1,0.3,0.3,0.5
		c-2.8,0-5.5,0-8.4,0c0.2-0.3,0.3-0.5,0.4-0.6c0.7-0.6,1.1-1.4,1.2-2.3c0.3-2.1,0.6-4.2,0.8-6.3c0.6-10.1,0.6-20.3,0.6-30.4
		c0-0.3,0-0.5,0-0.8c0.8,0,1.5,0,2.3,0c0,0.3,0,0.5,0,0.8c0.1,7.9,0.1,15.7,0.3,23.6C72.8,81.8,73.3,85.6,73.6,89.5z M76,52.1
		c-0.2,0.2-0.4,0.4-0.7,0.4c-1.3,0-2.6,0-4,0c-1.3,0-2.6,0-3.9,0c-0.4,0-0.8-0.1-0.8-0.6c0-0.5,0.4-0.5,0.8-0.5c1.4,0,2.8,0,4.1,0
		c1.2,0,2.5,0.1,3.7,0.2C75.6,51.7,75.8,52,76,52.1z M74.6,50.2c0.1,0,0.2,0.1,0.3,0.2c-0.1,0.1-0.2,0.2-0.4,0.3c-0.1,0-0.3,0-0.4,0
		c-1.9,0-3.8,0-5.7,0c-0.3,0-0.5-0.1-0.8-0.1c0-0.1,0-0.2-0.1-0.2c0.3-0.1,0.5-0.4,0.8-0.4c1.5,0,3,0,4.5,0
		C73.4,50,74,50.1,74.6,50.2z M74,43.6c-0.3,1.7-0.6,3.4-1,5.1c-0.1,0.3-0.2,0.5-0.5,0.5c-0.7,0-1.5,0-2.2,0c-0.3,0-0.5-0.1-0.6-0.5
		c-0.3-1.7-0.6-3.4-0.9-5.1c0-0.2,0-0.4,0.1-0.5c0.8-1.1,1.7-2.1,2.5-3.2c0.9,1.1,1.7,2.2,2.6,3.3C74,43.2,74,43.4,74,43.6z
		 M75.7,46.6c-1.2-0.5-1.2-0.5-1-1.8c0-0.2,0.1-0.4,0.2-0.7c1.1,1,2.3,1.7,3.6,2c2.3,0.6,4.5,0.2,6.8-0.2c0.7-0.1,1.4-0.3,2.2-0.4
		C83.6,46.9,79.8,48.2,75.7,46.6z M108.7,81c-2.4,0-4.7,0-7,0c0-10.1,0-20.1,0-30.1c0,0,0.1,0,0.1,0C104,60.9,106.4,71,108.7,81z
		 M99.5,45.7c0.2-0.7,0.9-1.2,1.7-1.2c0.8,0,1.4,0.6,1.6,1.4c0.1,0.8-0.1,1.4-1,1.8c0.8-1,1.1-1.8,0.1-2.6c-0.5-0.4-1.2-0.3-1.7,0.1
		c-0.8,0.8-0.5,1.6,0.1,2.4C99.5,47.2,99.3,46.5,99.5,45.7z M100.5,50.8c0,0,0.1,0,0.1,0c0,10,0,20,0,30.1c-2.4,0-4.7,0-7,0
		C95.9,71,98.2,60.9,100.5,50.8z M110.2,82.9c-6,0.5-12,0.5-18.1,0C98.1,82.4,104.1,82.4,110.2,82.9z M112.6,84.6
		c-0.9,0.2-1.5,0.8-2.3,1c-1.3,0.4-2.6,0.7-3.9,1c-4.4,0.8-8.8,0.6-13.1-0.5c-0.9-0.2-1.8-0.7-2.7-1.1c-0.2-0.1-0.4-0.1-0.6-0.1
		c-0.7-0.2-1.3-0.6-1.6-1.3c8.4,1,16.8,0.9,25.3,0.1C113.4,84,113.1,84.5,112.6,84.6z"/>
</g>
<g>
	<rect x="161.2" y="81.7" class="st1" width="396.3" height="1.1"/>
</g>
<g>
	<path class="st1" d="M226.7,112.7h-7v-0.2c0.6-0.1,1.1-0.2,1.3-0.3c0.4-0.3,0.7-0.7,0.7-1.2c0-0.3-0.1-0.7-0.3-1.2l-0.2-0.4l-1-2.5
		h-4.7l-0.6,1.5l-0.3,0.7c-0.3,0.8-0.5,1.4-0.5,1.8c0,0.3,0.1,0.5,0.2,0.7c0.1,0.2,0.3,0.4,0.5,0.6c0.3,0.2,0.6,0.3,1.1,0.3v0.2
		h-4.8v-0.2c0.4,0,0.7-0.1,1-0.3c0.3-0.2,0.6-0.4,0.8-0.8c0.2-0.3,0.4-0.7,0.7-1.1c0.2-0.5,0.5-1.1,0.9-2.1l3.9-10.1h0.6l4.6,11.2
		c0.3,0.8,0.6,1.5,0.8,1.8c0.2,0.4,0.4,0.6,0.7,0.8c0.2,0.1,0.4,0.2,0.6,0.3c0.2,0.1,0.6,0.1,1,0.2V112.7z M220.1,106.4l-2.2-5.5
		l-2.1,5.5H220.1z"/>
	<path class="st1" d="M227,112.4c0.4,0,0.7-0.1,1-0.2c0.2-0.1,0.5-0.2,0.7-0.4c0.2-0.2,0.4-0.5,0.5-0.9c0.1-0.4,0.1-0.9,0.1-1.6
		v-7.9c0-0.8,0-1.4-0.1-1.7c-0.1-0.4-0.3-0.7-0.6-0.9c-0.3-0.3-0.9-0.5-1.5-0.5v-0.2h5.9c1.3,0,2.1,0,2.5,0c1.5,0.1,2.8,0.5,3.8,1.3
		c1,0.7,1.8,1.6,2.3,2.8c0.6,1.1,0.8,2.4,0.8,3.7c0,1-0.2,1.9-0.5,2.8c-0.3,0.9-0.8,1.6-1.3,2.2c-0.8,0.8-1.8,1.3-3,1.5
		c-0.9,0.2-1.8,0.2-2.7,0.2H227V112.4z M231.6,98.4V109c0,0.7,0,1.2,0.1,1.6c0.1,0.4,0.2,0.7,0.4,0.9c0.5,0.6,1.2,0.8,2.2,0.8
		c0.9,0,1.6-0.1,2.2-0.4c0.6-0.3,1.2-0.8,1.7-1.4c0.5-0.6,0.9-1.3,1.1-2.1s0.4-1.7,0.4-2.6c0-1-0.2-2-0.5-2.9
		c-0.3-0.9-0.7-1.7-1.3-2.4c-0.8-0.9-1.7-1.6-2.8-1.9c-0.6-0.2-1.4-0.2-2.3-0.2H231.6z"/>
	<path class="st1" d="M243,98.1h7v0.2c-0.5,0-0.9,0.1-1.2,0.2c-0.2,0.1-0.4,0.3-0.5,0.5c-0.1,0.2-0.2,0.5-0.2,0.7
		c0,0.2,0,0.3,0.1,0.5c0,0.1,0.1,0.5,0.3,0.9l3.2,8.6l3.1-7.5c0.4-1.1,0.6-1.8,0.6-2.3c0-0.3,0-0.5-0.1-0.8
		c-0.1-0.2-0.2-0.4-0.3-0.5c-0.1-0.1-0.3-0.2-0.5-0.3c-0.2,0-0.4-0.1-0.7-0.1v-0.2h4.7v0.2c-0.4,0-0.7,0.1-1,0.3
		c-0.3,0.2-0.6,0.4-0.8,0.7c-0.2,0.2-0.4,0.5-0.6,0.9c-0.2,0.4-0.5,1-0.8,1.8l-4.4,10.5h-0.4l-4.2-10.9c-0.6-1.4-1-2.3-1.3-2.7
		c-0.2-0.2-0.5-0.4-0.8-0.5c-0.3-0.1-0.7-0.2-1.1-0.2V98.1z"/>
	<path class="st1" d="M259.2,105.5c0-1.2,0.3-2.3,0.8-3.3c0.5-1,1.3-1.9,2.2-2.7c0.7-0.6,1.5-1,2.4-1.3c0.8-0.3,1.7-0.5,2.6-0.5
		c1.1,0,2.2,0.2,3.2,0.7c1,0.5,1.9,1.2,2.7,2c1.3,1.4,1.9,3,1.9,4.9c0,0.9-0.2,1.8-0.5,2.6c-0.3,0.8-0.8,1.6-1.4,2.3
		c-0.8,0.9-1.7,1.5-2.7,2c-1,0.5-2.1,0.7-3.3,0.7c-1.1,0-2.2-0.2-3.2-0.7c-1-0.5-1.9-1.1-2.7-2c-0.6-0.7-1-1.4-1.4-2.3
		C259.4,107.3,259.2,106.4,259.2,105.5z M261.8,105.6c0,2.1,0.6,3.8,1.7,5.2c0.5,0.6,1,1.1,1.6,1.4c0.6,0.3,1.2,0.4,2,0.4
		c0.7,0,1.4-0.1,2-0.4c0.6-0.3,1.1-0.7,1.6-1.4c1.1-1.4,1.7-3.2,1.7-5.3c0-1.1-0.2-2.2-0.5-3.2c-0.3-1-0.7-1.9-1.3-2.6
		c-0.5-0.6-1-1-1.5-1.3c-0.6-0.3-1.2-0.4-2-0.4c-0.8,0-1.4,0.1-2,0.4c-0.6,0.3-1.1,0.7-1.5,1.3c-0.6,0.7-1,1.6-1.3,2.6
		C261.9,103.4,261.8,104.5,261.8,105.6z"/>
	<path class="st1" d="M289.5,98l0.1,4.8h-0.2c-0.1-0.2-0.1-0.4-0.2-0.5c-0.2-0.7-0.5-1.2-0.6-1.5c-0.3-0.6-0.7-1.1-1.2-1.6
		c-0.4-0.4-0.8-0.7-1.2-0.8c-0.4-0.2-0.9-0.3-1.4-0.3c-0.8,0-1.5,0.2-2.1,0.5c-0.5,0.3-1,0.7-1.5,1.3c-0.4,0.6-0.8,1.2-1.1,2
		c-0.4,1-0.6,2.2-0.6,3.5c0,1.1,0.1,2.1,0.4,3c0.3,0.9,0.7,1.6,1.2,2.3c1,1.1,2.3,1.7,3.9,1.7c0.8,0,1.5-0.1,2.2-0.4
		c0.6-0.3,1.1-0.7,1.5-1.2c0.4-0.6,0.7-1.4,0.9-2.4l0.2,0c-0.1,1.1-0.4,2-0.9,2.7c-0.5,0.6-1.1,1.1-1.9,1.5
		c-0.8,0.3-1.7,0.5-2.8,0.5c-1,0-1.9-0.1-2.8-0.4c-1.4-0.5-2.5-1.3-3.3-2.5c-0.8-1.2-1.2-2.7-1.2-4.4c0-1.3,0.2-2.5,0.7-3.6
		c0.5-1.1,1.1-2,2-2.7c0.6-0.5,1.4-0.9,2.3-1.2c0.9-0.3,1.8-0.5,2.7-0.5c0.9,0,1.8,0.2,2.7,0.5l0.9,0.3c0.2,0.1,0.3,0.1,0.4,0.1
		c0.2,0,0.3-0.1,0.4-0.2c0-0.1,0.1-0.2,0.2-0.4H289.5z"/>
	<path class="st1" d="M305.9,112.7h-7v-0.2c0.6-0.1,1.1-0.2,1.3-0.3c0.4-0.3,0.7-0.7,0.7-1.2c0-0.3-0.1-0.7-0.3-1.2l-0.2-0.4l-1-2.5
		h-4.7l-0.6,1.5l-0.3,0.7c-0.3,0.8-0.5,1.4-0.5,1.8c0,0.3,0.1,0.5,0.2,0.7s0.3,0.4,0.5,0.6c0.3,0.2,0.6,0.3,1.1,0.3v0.2h-4.8v-0.2
		c0.4,0,0.7-0.1,1-0.3c0.3-0.2,0.6-0.4,0.8-0.8c0.2-0.3,0.4-0.7,0.7-1.1c0.2-0.5,0.5-1.1,0.9-2.1l3.9-10.1h0.6l4.6,11.2
		c0.3,0.8,0.6,1.5,0.8,1.8c0.2,0.4,0.4,0.6,0.7,0.8c0.2,0.1,0.4,0.2,0.6,0.3c0.2,0.1,0.6,0.1,1,0.2V112.7z M299.2,106.4l-2.2-5.5
		l-2.1,5.5H299.2z"/>
	<path class="st1" d="M319.3,98l0.1,4.8h-0.2c-0.1-0.2-0.1-0.4-0.2-0.5c-0.2-0.7-0.5-1.2-0.6-1.5c-0.3-0.6-0.7-1.1-1.2-1.6
		c-0.4-0.4-0.8-0.7-1.2-0.8c-0.4-0.2-0.9-0.3-1.4-0.3c-0.8,0-1.5,0.2-2.1,0.5c-0.5,0.3-1,0.7-1.5,1.3c-0.4,0.6-0.8,1.2-1.1,2
		c-0.4,1-0.6,2.2-0.6,3.5c0,1.1,0.1,2.1,0.4,3c0.3,0.9,0.7,1.6,1.2,2.3c1,1.1,2.3,1.7,3.9,1.7c0.8,0,1.5-0.1,2.2-0.4
		c0.6-0.3,1.1-0.7,1.5-1.2c0.4-0.6,0.7-1.4,0.9-2.4l0.2,0c-0.1,1.1-0.4,2-0.9,2.7c-0.5,0.6-1.1,1.1-1.9,1.5
		c-0.8,0.3-1.7,0.5-2.8,0.5c-1,0-1.9-0.1-2.8-0.4c-1.4-0.5-2.5-1.3-3.3-2.5c-0.8-1.2-1.2-2.7-1.2-4.4c0-1.3,0.2-2.5,0.7-3.6
		c0.5-1.1,1.1-2,2-2.7c0.6-0.5,1.4-0.9,2.3-1.2c0.9-0.3,1.8-0.5,2.7-0.5c0.9,0,1.8,0.2,2.7,0.5l0.9,0.3c0.2,0.1,0.3,0.1,0.4,0.1
		c0.2,0,0.3-0.1,0.4-0.2c0-0.1,0.1-0.2,0.2-0.4H319.3z"/>
	<path class="st1" d="M327.6,98.1v0.2c-0.4,0-0.7,0.1-1,0.2c-0.3,0.1-0.5,0.2-0.7,0.4c-0.3,0.3-0.4,0.7-0.5,1.2
		c0,0.4-0.1,0.8-0.1,1.3v7.9c0,0.6,0,1.1,0.1,1.4c0.1,0.3,0.1,0.6,0.3,0.8c0.2,0.3,0.4,0.5,0.7,0.6c0.3,0.1,0.7,0.2,1.2,0.3v0.2
		h-6.8v-0.2c0.4,0,0.7-0.1,1-0.2c0.3-0.1,0.5-0.2,0.7-0.4c0.2-0.2,0.4-0.5,0.5-0.9c0.1-0.3,0.1-0.9,0.1-1.6v-7.9
		c0-0.7,0-1.3-0.1-1.6c-0.1-0.3-0.2-0.6-0.5-0.9c-0.2-0.2-0.4-0.4-0.7-0.4s-0.6-0.1-1-0.2v-0.2H327.6z"/>
	<path class="st1" d="M343.5,112.7h-7v-0.2c0.6-0.1,1.1-0.2,1.3-0.3c0.4-0.3,0.7-0.7,0.7-1.2c0-0.3-0.1-0.7-0.3-1.2l-0.2-0.4l-1-2.5
		h-4.7l-0.6,1.5l-0.3,0.7c-0.3,0.8-0.5,1.4-0.5,1.8c0,0.3,0.1,0.5,0.2,0.7c0.1,0.2,0.3,0.4,0.5,0.6c0.3,0.2,0.6,0.3,1.1,0.3v0.2
		h-4.8v-0.2c0.4,0,0.7-0.1,1-0.3c0.3-0.2,0.6-0.4,0.8-0.8c0.2-0.3,0.4-0.7,0.7-1.1c0.2-0.5,0.5-1.1,0.9-2.1l3.9-10.1h0.6l4.6,11.2
		c0.3,0.8,0.6,1.5,0.8,1.8c0.2,0.4,0.4,0.6,0.7,0.8c0.2,0.1,0.4,0.2,0.6,0.3s0.6,0.1,1,0.2V112.7z M336.8,106.4l-2.2-5.5l-2.1,5.5
		H336.8z"/>
	<path class="st1" d="M349.1,107.2h4.8v1.6h-4.8V107.2z"/>
	<path class="st1" d="M360.7,105.5c0-1.2,0.3-2.3,0.8-3.3c0.5-1,1.3-1.9,2.2-2.7c0.7-0.6,1.5-1,2.4-1.3c0.8-0.3,1.7-0.5,2.6-0.5
		c1.1,0,2.2,0.2,3.2,0.7c1,0.5,1.9,1.2,2.7,2c1.3,1.4,1.9,3,1.9,4.9c0,0.9-0.2,1.8-0.5,2.6c-0.3,0.8-0.8,1.6-1.4,2.3
		c-0.8,0.9-1.7,1.5-2.7,2c-1,0.5-2.1,0.7-3.3,0.7c-1.1,0-2.2-0.2-3.2-0.7c-1-0.5-1.9-1.1-2.7-2c-0.6-0.7-1-1.4-1.4-2.3
		C360.9,107.3,360.7,106.4,360.7,105.5z M363.3,105.6c0,2.1,0.6,3.8,1.7,5.2c0.5,0.6,1,1.1,1.6,1.4c0.6,0.3,1.2,0.4,2,0.4
		c0.7,0,1.4-0.1,2-0.4c0.6-0.3,1.1-0.7,1.6-1.4c1.1-1.4,1.7-3.2,1.7-5.3c0-1.1-0.2-2.2-0.5-3.2c-0.3-1-0.7-1.9-1.3-2.6
		c-0.5-0.6-1-1-1.5-1.3c-0.6-0.3-1.2-0.4-2-0.4c-0.8,0-1.4,0.1-2,0.4c-0.6,0.3-1.1,0.7-1.5,1.3c-0.6,0.7-1,1.6-1.3,2.6
		C363.5,103.4,363.3,104.5,363.3,105.6z"/>
	<path class="st1" d="M392.8,112.7h-7v-0.2c0.6-0.1,1.1-0.2,1.3-0.3c0.4-0.3,0.7-0.7,0.7-1.2c0-0.3-0.1-0.7-0.3-1.2l-0.2-0.4l-1-2.5
		h-4.7l-0.6,1.5l-0.3,0.7c-0.3,0.8-0.5,1.4-0.5,1.8c0,0.3,0.1,0.5,0.2,0.7s0.3,0.4,0.5,0.6c0.3,0.2,0.6,0.3,1.1,0.3v0.2h-4.8v-0.2
		c0.4,0,0.7-0.1,1-0.3c0.3-0.2,0.6-0.4,0.8-0.8c0.2-0.3,0.4-0.7,0.7-1.1c0.2-0.5,0.5-1.1,0.9-2.1l3.9-10.1h0.6l4.6,11.2
		c0.3,0.8,0.6,1.5,0.8,1.8c0.2,0.4,0.4,0.6,0.7,0.8c0.2,0.1,0.4,0.2,0.6,0.3c0.2,0.1,0.6,0.1,1,0.2V112.7z M386.1,106.4l-2.2-5.5
		l-2.1,5.5H386.1z"/>
	<path class="st1" d="M393.1,112.7v-0.2c0.4,0,0.7-0.1,1-0.2c0.3-0.1,0.5-0.2,0.7-0.4c0.2-0.2,0.4-0.5,0.5-0.9
		c0.1-0.3,0.1-0.9,0.1-1.6v-7.9c0-0.7,0-1.3-0.1-1.6c-0.1-0.3-0.2-0.6-0.5-0.9c-0.2-0.2-0.4-0.4-0.7-0.4s-0.6-0.1-1-0.2v-0.2h7
		c0.7,0,1.2,0,1.4,0c0.8,0.1,1.5,0.3,2,0.6c0.5,0.3,0.8,0.7,1.1,1.1c0.3,0.5,0.4,1,0.4,1.6c0,0.9-0.3,1.7-0.9,2.3
		c-0.2,0.2-0.4,0.4-0.7,0.5c-0.3,0.1-0.6,0.3-1.1,0.5c0.7,0.1,1.2,0.2,1.6,0.4c0.4,0.1,0.7,0.3,1,0.6c0.5,0.4,0.8,0.8,1.1,1.4
		c0.3,0.6,0.4,1.1,0.4,1.8c0,0.6-0.1,1.2-0.4,1.8c-0.3,0.5-0.6,1-1.1,1.3c-0.4,0.3-0.9,0.5-1.5,0.6c-0.6,0.1-1.4,0.2-2.4,0.2H393.1z
		 M397.7,98.4v6.3h0.9c0.4,0,0.8,0,1.3-0.1c0.4-0.1,0.7-0.1,0.9-0.2c0.2-0.1,0.4-0.2,0.6-0.3c0.4-0.3,0.6-0.6,0.8-1
		c0.2-0.4,0.3-0.9,0.3-1.4c0-0.5-0.1-1.1-0.3-1.5c-0.2-0.5-0.5-0.9-0.8-1.1c-0.3-0.2-0.6-0.4-1-0.5c-0.4-0.1-0.9-0.1-1.7-0.1H397.7z
		 M397.7,105.1v4.4c0,0.5,0,1,0.1,1.3c0.1,0.3,0.2,0.6,0.4,0.8c0.4,0.5,1,0.7,1.9,0.7c1.1,0,2-0.3,2.7-0.9c0.7-0.6,1-1.5,1-2.6
		c0-0.6-0.1-1.2-0.3-1.7c-0.2-0.5-0.5-0.9-0.8-1.2c-0.6-0.5-1.6-0.8-3-0.8H397.7z"/>
	<path class="st1" d="M406.6,115.3l6.6-17.8h0.7l-6.6,17.8H406.6z"/>
	<path class="st1" d="M414.7,112.6l0-4.4l0.2,0c0.3,1.1,0.7,2,1.1,2.6c0.8,1.2,1.7,1.8,2.9,1.8c0.8,0,1.5-0.3,2-0.8
		c0.5-0.5,0.8-1.2,0.8-2.1c0-0.4-0.1-0.7-0.2-1.1c-0.1-0.4-0.3-0.7-0.5-1c-0.2-0.3-0.5-0.5-0.9-0.8c-0.4-0.3-0.9-0.6-1.7-1
		c-0.7-0.3-1.2-0.6-1.6-0.9c-0.4-0.2-0.6-0.5-0.9-0.7c-0.6-0.7-0.9-1.5-0.9-2.4c0-0.6,0.1-1.2,0.4-1.7c0.2-0.5,0.6-1,1-1.4
		c0.8-0.7,1.6-1,2.7-1c0.3,0,0.6,0,0.9,0.1c0.3,0.1,0.7,0.2,1.1,0.4c0.4,0.1,0.6,0.2,0.7,0.3c0.1,0,0.2,0.1,0.3,0.1
		c0.2,0,0.4-0.2,0.5-0.5h0.2l0.1,4.2H423c-0.2-0.7-0.4-1.2-0.5-1.6c-0.1-0.4-0.3-0.7-0.5-1c-0.3-0.6-0.7-1-1.1-1.2
		c-0.4-0.3-0.9-0.4-1.4-0.4c-0.8,0-1.4,0.3-1.9,0.8c-0.2,0.2-0.3,0.5-0.5,0.8c-0.1,0.3-0.2,0.6-0.2,0.9c0,1.2,0.8,2.1,2.3,2.9
		l1.5,0.7c1.2,0.5,2,1.2,2.5,1.8c0.6,0.7,0.9,1.6,0.9,2.6c0,0.7-0.1,1.3-0.4,1.9c-0.4,0.8-0.9,1.5-1.7,1.9s-1.6,0.7-2.6,0.7
		c-0.9,0-1.8-0.2-2.6-0.5c-0.4-0.2-0.7-0.3-0.8-0.3c-0.1,0-0.2,0-0.3,0c-0.3,0-0.6,0.2-0.7,0.5H414.7z"/>
	<path class="st1" d="M430.1,105.5v3.8c0,0.7,0,1.3,0.1,1.6c0.1,0.4,0.2,0.6,0.5,0.9c0.2,0.2,0.4,0.3,0.7,0.4c0.3,0.1,0.6,0.2,1,0.2
		v0.2h-6.8v-0.2c0.4,0,0.7-0.1,1-0.2c0.3-0.1,0.5-0.2,0.7-0.4c0.2-0.2,0.4-0.5,0.5-0.9c0.1-0.3,0.1-0.9,0.1-1.6v-7.9
		c0-0.6,0-1.1-0.1-1.4c-0.1-0.3-0.1-0.6-0.3-0.8c-0.2-0.3-0.4-0.5-0.7-0.6c-0.3-0.1-0.7-0.2-1.1-0.3h-0.1v-0.2h6.4
		c1.1,0,2,0.1,2.5,0.2s1,0.3,1.5,0.7c1,0.8,1.5,1.8,1.5,3.1c0,1.3-0.5,2.3-1.5,2.9c-0.5,0.3-1.2,0.5-1.9,0.6c-0.2,0-0.8,0-1.7,0
		H430.1z M430.1,105.1h1c0.7,0,1.2-0.1,1.6-0.2c0.4-0.1,0.7-0.3,1-0.6c0.7-0.6,1-1.5,1-2.5c0-0.6-0.1-1.1-0.3-1.6
		c-0.2-0.5-0.5-0.9-0.9-1.2c-0.4-0.4-0.9-0.6-1.5-0.6c-0.2,0-0.5,0-1.1,0h-0.9V105.1z"/>
	<path class="st1" d="M449,98.1h0.2v11.7c0,0.5,0,1,0.1,1.3c0.1,0.3,0.2,0.6,0.4,0.8c0.3,0.3,0.9,0.5,1.6,0.5v0.2h-6.2v-0.2
		c0.5,0,0.8-0.1,1.1-0.2c0.2-0.1,0.4-0.2,0.6-0.4c0.2-0.2,0.3-0.4,0.4-0.7c0.1-0.3,0.1-0.7,0.1-1.3V99.7c-0.4,0-0.7,0.1-0.9,0.1
		c-0.5,0-0.9,0-1.3-0.1v-0.2h0.2c0.5,0,1.1-0.1,1.6-0.3c0.5-0.2,1-0.5,1.6-0.9L449,98.1z"/>
	<path class="st1" d="M460.4,104.6c0.5,0.3,1,0.6,1.3,0.8c0.3,0.2,0.6,0.5,0.8,0.8c0.7,0.8,1,1.6,1,2.7c0,1.1-0.4,2-1.1,2.8
		c-0.8,0.8-1.8,1.2-3.1,1.2c-1.4,0-2.6-0.4-3.4-1.3c-0.7-0.7-1.1-1.6-1.1-2.5c0-1,0.4-1.9,1.2-2.6c0.3-0.3,1-0.7,1.9-1.1
		c-0.8-0.4-1.5-0.9-1.9-1.4c-0.6-0.7-0.9-1.5-0.9-2.4c0-1,0.3-1.8,1-2.4c0.4-0.4,0.8-0.7,1.3-0.9c0.5-0.2,1.1-0.3,1.7-0.3
		c0.5,0,1,0.1,1.5,0.3c0.5,0.2,0.9,0.4,1.3,0.7c0.7,0.6,1.1,1.4,1.1,2.3c0,0.9-0.3,1.6-0.9,2.3C461.7,103.7,461.2,104.1,460.4,104.6
		z M458.3,105.5c-0.7,0.5-1.2,1.1-1.5,1.7c-0.3,0.6-0.5,1.3-0.5,2.1c0,0.9,0.3,1.7,0.8,2.3c0.6,0.6,1.3,1,2.2,1
		c0.8,0,1.4-0.3,1.9-0.8c0.3-0.3,0.5-0.6,0.6-1c0.1-0.4,0.2-0.8,0.2-1.2c0-1-0.4-1.8-1.1-2.5C460.4,106.5,459.5,106,458.3,105.5z
		 M459.9,104.4c0.5-0.4,0.8-0.8,1.1-1.3c0.2-0.5,0.4-1.1,0.4-1.8c0-0.9-0.2-1.7-0.7-2.3c-0.5-0.6-1.1-0.9-1.8-0.9
		c-0.7,0-1.3,0.2-1.7,0.7c-0.4,0.5-0.7,1.1-0.7,1.9c0,1,0.4,1.9,1.3,2.5C458.2,103.7,458.9,104.1,459.9,104.4z"/>
	<path class="st1" d="M472.5,106.4c-0.5,0.4-0.9,0.7-1.4,0.8c-0.4,0.2-0.9,0.3-1.4,0.3c-0.5,0-1.1-0.1-1.6-0.4
		c-0.8-0.4-1.5-0.9-2-1.7c-0.5-0.8-0.7-1.6-0.7-2.6c0-0.7,0.1-1.4,0.4-2c0.2-0.6,0.6-1.2,1.1-1.6c0.8-0.9,1.9-1.3,3.1-1.3
		c1.4,0,2.6,0.6,3.4,1.8c0.8,1.1,1.1,2.5,1.1,4.2c0,1.4-0.2,2.7-0.7,4c-0.5,1.2-1.1,2.3-2,3.2c-0.6,0.6-1.1,1-1.7,1.3
		c-0.6,0.3-1.2,0.4-1.9,0.4c-0.7,0-1.4-0.1-1.8-0.4c-0.5-0.3-0.7-0.7-0.7-1.1c0-0.2,0.1-0.4,0.2-0.6c0.1-0.2,0.3-0.2,0.5-0.2
		c0.1,0,0.3,0,0.4,0.1c0.1,0.1,0.2,0.2,0.3,0.3c0.1,0.1,0.2,0.3,0.3,0.7c0.1,0.3,0.3,0.6,0.5,0.7c0.2,0.1,0.5,0.2,0.8,0.2
		c0.9,0,1.8-0.6,2.5-1.8C471.8,109.5,472.3,108.1,472.5,106.4z M472.7,102.7c0-1.3-0.2-2.4-0.7-3.2c-0.5-0.8-1.2-1.2-1.9-1.2
		c-0.4,0-0.8,0.1-1.1,0.3c-0.3,0.2-0.6,0.5-0.9,1c-0.3,0.4-0.5,1-0.6,1.6c-0.2,0.6-0.2,1.2-0.2,1.9c0,0.6,0.1,1.2,0.2,1.8
		c0.2,0.6,0.4,1.1,0.7,1.4c0.5,0.6,1.1,1,1.9,1c0.7,0,1.2-0.3,1.7-0.8c0.3-0.4,0.6-0.9,0.8-1.6C472.6,104.1,472.7,103.4,472.7,102.7
		z"/>
	<path class="st1" d="M477.9,110.3c0.4,0,0.7,0.1,0.9,0.4c0.3,0.3,0.4,0.6,0.4,0.9c0,0.4-0.1,0.7-0.4,0.9c-0.3,0.3-0.6,0.4-0.9,0.4
		s-0.7-0.1-0.9-0.4c-0.3-0.3-0.4-0.6-0.4-0.9c0-0.4,0.1-0.7,0.4-0.9C477.3,110.4,477.6,110.3,477.9,110.3z"/>
	<path class="st1" d="M486.7,109.2h-5.3V109l6.6-10.9h0.5v10.8c0.5,0,0.8,0,1-0.1c0.2-0.1,0.4-0.2,0.5-0.4c0.1-0.1,0.2-0.3,0.2-0.5
		c0.1-0.2,0.1-0.4,0.1-0.7l0-0.2h0.2v4.1h-0.2c0-0.4-0.1-0.8-0.1-1c-0.1-0.2-0.1-0.4-0.3-0.5c-0.1-0.1-0.3-0.2-0.5-0.3
		c-0.2,0-0.4-0.1-0.8-0.1h-0.2v1.1c0,0.4,0,0.7,0.1,1c0.1,0.3,0.2,0.5,0.3,0.6c0.1,0.2,0.3,0.3,0.5,0.4c0.2,0.1,0.5,0.1,0.9,0.2v0.2
		h-5.4v-0.2c0.7-0.1,1.2-0.2,1.4-0.4c0.1-0.2,0.2-0.4,0.3-0.6c0.1-0.3,0.1-0.7,0.1-1.1V109.2z M486.7,108.8V101l-4.8,7.8H486.7z"/>
	<path class="st1" d="M501,98.3l-5.2,13.2l-0.2,0.5c-0.1,0.3-0.3,0.5-0.4,0.6c-0.2,0.1-0.3,0.2-0.6,0.2c-0.2,0-0.5-0.1-0.6-0.2
		c-0.2-0.2-0.3-0.3-0.3-0.6c0-0.2,0.1-0.5,0.3-0.8l0.2-0.4l5.7-10.8h-4.7c-0.4,0-0.7,0-0.9,0.1c-0.2,0-0.4,0.1-0.5,0.2
		c-0.2,0.1-0.4,0.3-0.5,0.5c-0.1,0.2-0.3,0.6-0.6,1.1l-0.1,0.1h-0.2l1-4.3h0.2c0,0.2,0.1,0.4,0.2,0.4s0.3,0.1,0.7,0.1L501,98.3z"/>
	<path class="st1" d="M511.7,98.3l-5.2,13.2l-0.2,0.5c-0.1,0.3-0.3,0.5-0.4,0.6c-0.2,0.1-0.3,0.2-0.6,0.2c-0.2,0-0.5-0.1-0.6-0.2
		c-0.2-0.2-0.3-0.3-0.3-0.6c0-0.2,0.1-0.5,0.3-0.8l0.2-0.4l5.7-10.8H506c-0.4,0-0.7,0-0.9,0.1c-0.2,0-0.4,0.1-0.5,0.2
		c-0.2,0.1-0.4,0.3-0.5,0.5c-0.1,0.2-0.3,0.6-0.6,1.1l-0.1,0.1h-0.2l1-4.3h0.2c0,0.2,0.1,0.4,0.2,0.4s0.3,0.1,0.7,0.1L511.7,98.3z"
		/>
</g>
</svg>
